<svg width="47" height="21" viewBox="0 0 47 21" fill="none" xmlns="http://www.w3.org/2000/svg">
<path d="M10.4534 20H14.96L10.6518 10.3916L14.8466 0.726431H10.3967L7.2222 8.9177L4.6146 9.20113V0.726431H0.703199V20H4.6146V12.6024L7.2222 12.3189L10.4534 20ZM22.2662 20H26.0642V5.82826H22.2662V20ZM22.2662 4.01428H26.0642V0.159561H22.2662V4.01428ZM45.5309 10.2498C45.5309 6.93365 44.057 5.48814 40.3723 5.48814C37.6514 5.48814 34.6186 6.3101 34.6186 6.3101L34.732 8.94604C34.732 8.94604 38.1899 8.71929 40.0606 8.71929C41.1943 8.71929 41.7328 9.03107 41.7328 10.2498V11.1285L38.7001 11.3552C35.5823 11.582 33.74 12.489 33.74 15.6918C33.74 18.6962 35.1571 20.3401 38.1332 20.3401C40.259 20.3401 42.2997 19.3481 42.2997 19.3481C43.4901 20.1417 44.4538 20.3401 46.3528 20.3401L46.4662 17.4774C45.7009 17.3357 45.5875 16.9956 45.5309 16.1453V10.2498ZM41.7328 13.7644V16.7972C41.7328 16.7972 40.1739 17.2507 38.9552 17.2507C37.9348 17.2507 37.5663 16.5704 37.5663 15.5784C37.5663 14.5581 38.1615 14.0762 39.1536 13.9912L41.7328 13.7644Z" fill="#0A2237"/>
</svg>
